<?xml version="1.0" encoding="utf-8"?>
<svg version="1.1" id="_x32_by2View" xmlns="http://www.w3.org/2000/svg" xmlns:xlink="http://www.w3.org/1999/xlink" x="0px"
	 y="0px" viewBox="0 0 100 100" style="enable-background:new 0 0 100 100;" xml:space="preserve">
<path d="M94,82.3L53.6,13.8c-2.1-3.6-5.5-3.5-7.5,0.1L8.4,82.2c-2,3.7-0.4,6.6,3.5,6.6h78.7C94.6,88.8,96.1,85.9,94,82.3z
	 M56.1,78.1c0,1.1-0.8,1.9-1.8,1.9h-7.8c-1,0-1.8-0.9-1.8-1.9v-5.8c0-1.1,0.8-1.9,1.8-1.9h7.8c1,0,1.8,0.9,1.8,1.9V78.1z M56.6,39.4
	c0,1.1-0.1,2.8-0.2,3.8l-2.5,21.9c-0.1,1.1-1,1.9-2,1.9H49c-1,0-1.9-0.9-2-1.9l-2.5-21.9c-0.1-1.1-0.2-2.8-0.2-3.8v-8
	c0-1.1,0.8-1.9,1.8-1.9h8.8c1,0,1.8,0.9,1.8,1.9V39.4z"/>
</svg>
