<?xml version="1.0" encoding="utf-8"?>
<svg version="1.1" id="_x32_by2View" xmlns="http://www.w3.org/2000/svg" xmlns:xlink="http://www.w3.org/1999/xlink" x="0px"
	 y="0px" viewBox="0 0 100 100" style="enable-background:new 0 0 100 100;" xml:space="preserve">
<path d="M50,5.5C25.4,5.5,5.5,25.4,5.5,50c0,24.6,19.9,44.5,44.5,44.5S94.5,74.6,94.5,50C94.5,25.4,74.6,5.5,50,5.5z M58.3,78.4
	c0,2.5-2,4.5-4.5,4.5H46c-2.5,0-4.5-2-4.5-4.5v-3.6c0-2.5,2-4.5,4.5-4.5h7.8c2.5,0,4.5,2,4.5,4.5V78.4z M59,27.7
	c0,2.5-0.3,6.5-0.6,9l-3.2,24.6c-0.3,2.5-2.6,4.5-5.1,4.5h-0.5c-2.5,0-4.8-2-5.1-4.5l-3.2-24.6c-0.3-2.5-0.6-6.5-0.6-9v-6.5
	c0-2.5,2-4.5,4.5-4.5h9.2c2.5,0,4.5,2,4.5,4.5V27.7z"/>
</svg>
