<svg version="1.1" xmlns="http://www.w3.org/2000/svg" xmlns:xlink="http://www.w3.org/1999/xlink" x="0px" y="0px"
	 width="100px" height="100px" viewBox="0 0 100 100" style="enable-background:new 0 0 100 100;" xml:space="preserve">
	<g>
		<path d="M46.2,0.7c2.6,0,5.3,0,7.9,0c0.2,0.1,0.4,0.2,0.6,0.2c20.4,1.7,37.9,16.4,43.2,36.3c0.8,3,1.2,6.1,1.7,9.2
			c0,2.5,0,5,0,7.5c-0.1,0.2-0.2,0.4-0.2,0.6C97.6,75,83,92.4,63.1,97.6c-3,0.8-6.1,1.2-9.2,1.7c-2.5,0-5,0-7.5,0
			c-0.2-0.1-0.4-0.2-0.6-0.2C25.2,97.3,7.9,82.8,2.6,62.9C1.9,60,1.5,57,0.9,54.1c0-2.7,0-5.4,0-8.1c0.1-0.3,0.2-0.5,0.2-0.8
			C3.2,24.6,17.6,7.7,37.6,2.3C40.4,1.6,43.3,1.2,46.2,0.7z M42.5,56.9C42.4,56.9,42.4,56.9,42.5,56.9c-0.1,4.8-0.1,9.6,0,14.4
			c0,0.3,0.5,0.9,0.8,0.9c3,0.1,6,0.1,9,0c0.3,0,0.8-0.6,0.8-0.9c0.1-5.5,0-11.1,0.1-16.6c0-2.5,2-4.7,4.4-5.1
			c2.7-0.4,4.9,0.9,5.7,3.5c0.3,1.1,0.5,2.4,0.5,3.6c0.1,4.9,0,9.8,0.1,14.7c0,0.3,0.5,0.9,0.7,0.9c3.1,0.1,6.3,0.1,9.4,0
			c0.2,0,0.7-0.4,0.7-0.6c0-6.5,0.1-13.1-0.2-19.6c-0.3-4.5-2.4-8.2-6.9-10c-4.4-1.7-8.6-1.3-12.5,1.6c-0.7,0.6-1.3,1.3-1.9,2
			c0-1,0.1-2.1-0.1-3.1c-0.1-0.4-0.6-1-1-1c-3-0.1-5.9-0.1-8.9,0c-0.3,0-0.7,0.5-0.7,0.8C42.5,47.4,42.5,52.2,42.5,56.9z M27.2,57.3
			c0,4.8,0,9.5,0,14.3c0,0.3,0.5,0.9,0.9,0.9c2.6,0.1,5.1,0.1,7.7,0c0.3,0,0.9-0.6,0.9-0.9c0-9.5,0-19.1,0-28.6
			c0-0.3-0.6-0.9-0.9-0.9c-2.6-0.1-5.1-0.1-7.7,0c-0.3,0-0.8,0.6-0.9,0.9C27.2,47.7,27.2,52.5,27.2,57.3z M31.6,38.1
			c3.5,0,5.8-2.1,5.7-5.4c0-3.1-2.3-5.3-5.7-5.3c-3.4,0-5.8,2.2-5.8,5.3C25.8,35.9,28.1,38.1,31.6,38.1z"/>
	</g>
</svg>
