<?xml version="1.0" encoding="utf-8"?>
<!-- Generator: Adobe Illustrator 19.2.1, SVG Export Plug-In . SVG Version: 6.00 Build 0)  -->
<svg version="1.1" id="_x32_by2View" xmlns="http://www.w3.org/2000/svg" xmlns:xlink="http://www.w3.org/1999/xlink" x="0px"
	 y="0px" viewBox="0 0 100 100" style="enable-background:new 0 0 100 100;" xml:space="preserve">
<polygon points="28.1,84.4 59.4,84.4 59.4,78.1 28.1,78.1 "/>
<rect x="28.1" y="65.6" width="43.8" height="6.2"/>
<polygon points="78.1,93.8 21.9,93.8 21.9,59.4 15.6,59.4 15.6,100 84.4,100 84.4,59.4 78.1,59.4 "/>
<path d="M93.8,12.5h-3.1v6.2c0,6.9-5.6,12.5-12.5,12.5H21.9c-6.9,0-12.5-5.6-12.5-12.5v-6.2H6.2c-3.5,0-6.2,2.8-6.2,6.2v65.6
	c0,1.7,1.4,3.1,3.1,3.1h6.2V53.1h81.2v34.4h6.2c1.7,0,3.1-1.4,3.1-3.1V18.8C100,15.3,97.2,12.5,93.8,12.5z M18.8,43.8
	c-1.7,0-3.1-1.4-3.1-3.1s1.4-3.1,3.1-3.1s3.1,1.4,3.1,3.1S20.5,43.8,18.8,43.8z"/>
<path d="M21.9,25L21.9,25V6.2h56.2V25c3.5,0,6.2-2.8,6.2-6.2V0H15.6v18.8C15.6,22.2,18.4,25,21.9,25z"/>
</svg>
