<?xml version="1.0" encoding="utf-8"?>
<svg version="1.1" xmlns="http://www.w3.org/2000/svg" xmlns:xlink="http://www.w3.org/1999/xlink" x="0px"
	 y="0px" viewBox="0 0 100 100" style="enable-background:new 0 0 100 100;" xml:space="preserve">
<path d="M70.5,62.5h-4.2l-1.5-1.4c5.2-6.1,8.3-13.9,8.3-22.5C73.1,19.5,57.7,4,38.6,4S4,19.5,4,38.6s15.5,34.6,34.6,34.6
	c8.6,0,16.4-3.1,22.5-8.3l1.4,1.5v4.2L89.1,97l7.9-7.9L70.5,62.5z M38.6,62.5c-13.2,0-23.9-10.7-23.9-23.9s10.7-23.9,23.9-23.9
	s23.9,10.7,23.9,23.9S51.8,62.5,38.6,62.5z"/>
</svg>
