<?xml version="1.0" encoding="utf-8"?>
<!-- Generator: Adobe Illustrator 22.0.1, SVG Export Plug-In . SVG Version: 6.00 Build 0)  -->
<svg version="1.1" id="Layer_1" xmlns="http://www.w3.org/2000/svg" xmlns:xlink="http://www.w3.org/1999/xlink" x="0px" y="0px"
	 width="100px" height="100px" viewBox="0 0 100 100" style="enable-background:new 0 0 100 100;" xml:space="preserve">
<style type="text/css">
	.st0{fill:#FFFFFF;}
</style>
<g id="D1PIxi.tif">
	<g>
		<path class="st0" d="M49.4,0.6c0.5,0,1.1,0,1.6,0c0.1,0,0.2,0.1,0.4,0.1C54.1,1,56.9,1,59.5,1.6C75.8,5,87.7,14.2,95.1,29.1
			c2.6,5.3,4.1,11,4.6,17c0.1,0.7,0.2,1.4,0.2,2.2c0,1.4,0,2.9,0,4.3c0,0.1-0.1,0.2-0.1,0.3C99.7,56,99.2,59,98.5,62
			c-4.4,18.4-19.1,32.8-37.6,36.9c-6.8,1.5-13.5,1.6-20.3,0.2C28.9,96.8,19.2,91,11.7,81.8C2.2,70-1.3,56.5,1.3,41.7
			c2.5-14.1,10-25.1,21.9-33C31,3.6,39.7,1,49,0.7C49.1,0.7,49.3,0.7,49.4,0.6z M54.8,50.4c2.7,0,5.3,0,8,0c0.4-3.1,0.7-6.1,1.1-9.3
			c-3.1,0-6,0-9,0c0-1.8,0-3.6,0-5.4c0-2,0.8-2.7,2.8-2.8c1.8-0.1,3.7-0.1,5.5-0.1c0.2,0,0.4,0,0.6,0c0-3.1,0-6.1,0-9.2
			c-1.8,0-3.5,0-5.2,0c-2.2,0.1-4.3,0-6.5,0.3c-4.5,0.5-7.1,2.9-7.9,7.4c-0.4,2-0.3,4.2-0.4,6.2c0,1.2,0,2.4,0,3.6
			c-2.5,0-4.9,0-7.3,0c0,3.1,0,6.1,0,9.3c2.4,0,4.8,0,7.3,0c0,8.9,0,17.8,0,26.7c3.7,0,7.3,0,11,0C54.8,68.1,54.8,59.3,54.8,50.4z"
			/>
	</g>
</g>
</svg>
