<?xml version="1.0" encoding="utf-8"?>
<!-- Generator: Adobe Illustrator 22.0.1, SVG Export Plug-In . SVG Version: 6.00 Build 0)  -->
<svg version="1.1" id="Layer_1" xmlns="http://www.w3.org/2000/svg" xmlns:xlink="http://www.w3.org/1999/xlink" x="0px" y="0px"
	 width="100px" height="100px" viewBox="0 0 100 100" style="enable-background:new 0 0 100 100;" xml:space="preserve">
<style type="text/css">
	.st0{clip-path:url(#SVGID_2_);fill:#231F20;}
	.st1{clip-path:url(#SVGID_4_);enable-background:new    ;}
	.st2{clip-path:url(#SVGID_6_);}
	.st3{clip-path:url(#SVGID_8_);}
	.st4{clip-path:url(#SVGID_10_);fill:#231F20;}
	.st5{clip-path:url(#SVGID_12_);fill:#231F20;}
	.st6{clip-path:url(#SVGID_14_);fill:#231F20;}
	.st7{clip-path:url(#SVGID_16_);fill:#231F20;}
	.st8{clip-path:url(#SVGID_18_);fill:#231F20;}
</style>
<g>
	<defs>
		<path id="SVGID_1_" d="M52.6,0c0.5,0.4,1.1,0.8,1.4,1.3c0.6,0.9,1.6,1.9,1.6,2.9c0.2,5,0.2,10.1,0,15.1c0,1.3,0.8,1.6,1.5,1.9
			c0.9,0.4,2,0.4,3,0.7c2.1,0.7,4.2,1.5,6.3,2.4c1.4,0.6,2.7,1.2,3.9,2c1.5,1,2.8,2.1,4.1,3.3c1.4,1.3,2.8,2.7,4.1,4.1
			c1,1.2,1.9,2.6,2.7,4c0.8,1.4,1.6,2.8,2.4,4.2c0.3,0.5,0.5,1,0.6,1.5c0.5,2,1.1,4,1.4,6c0.4,2.8,0.4,5.7,0.6,8.6
			c0,0.2-0.4,0.7-0.7,0.7c-23.3,0-46.6,0-69.9,0c-0.2,0-0.7-0.4-0.7-0.6c0-2.5-0.2-5.1,0.1-7.5c0.2-1.9,1-3.8,1.7-5.7
			c0.6-1.7,1.2-3.5,2-5.1c0.6-1.2,1.4-2.4,2.3-3.5c1-1.4,2.1-2.8,3.2-4.1c0.9-1,1.9-1.9,2.9-2.8c1.1-1,2.3-2,3.5-2.9
			c0.7-0.5,1.6-0.9,2.4-1.4c1-0.5,2.1-1,3.2-1.6c0.6-0.3,1.1-0.7,1.7-0.8c1-0.3,2.1-0.5,3.1-0.8c1.5-0.4,2.9-0.8,4.4-1.3
			c0.1,0,0.2-0.5,0.2-0.7c0-5.2,0-10.4,0.1-15.6c0-1.7,1-3,2.7-3.6c0.2-0.1,0.3-0.4,0.4-0.6H52.6z"/>
	</defs>
	<clipPath id="SVGID_2_">
		<use xlink:href="#SVGID_1_"  style="overflow:visible;"/>
	</clipPath>
	<rect x="5" y="-10" class="st0" width="91.4" height="78.7"/>
</g>
<g>
	<defs>
		<rect id="SVGID_3_" x="4" y="60.2" width="91.7" height="11.1"/>
	</defs>
	<clipPath id="SVGID_4_">
		<use xlink:href="#SVGID_3_"  style="overflow:visible;"/>
	</clipPath>
	<g class="st1">
		<g>
			<defs>
				<rect id="SVGID_5_" x="4" y="58.3" width="92.4" height="14.1"/>
			</defs>
			<clipPath id="SVGID_6_">
				<use xlink:href="#SVGID_5_"  style="overflow:visible;"/>
			</clipPath>
			<g class="st2">
				<defs>
					<path id="SVGID_7_" d="M95.7,70.6c-0.9,0.2-1.8,0.6-2.7,0.6c-28.4,0-56.8,0-85.2,0c-1.3,0-2.6-0.3-3.9-0.5V60.3
						c1,0,2.1-0.1,3.1-0.1c28,0,56,0,83.9,0c1.6,0,3.1,0.1,4.7,0.1V70.6z"/>
				</defs>
				<clipPath id="SVGID_8_">
					<use xlink:href="#SVGID_7_"  style="overflow:visible;"/>
				</clipPath>
				<g class="st3">
					<defs>
						<rect id="SVGID_9_" x="4" y="58.3" width="92.4" height="14.1"/>
					</defs>
					<clipPath id="SVGID_10_">
						<use xlink:href="#SVGID_9_"  style="overflow:visible;"/>
					</clipPath>
					<rect x="-6" y="50.1" class="st4" width="111.8" height="31.2"/>
				</g>
			</g>
		</g>
	</g>
</g>
<g>
	<defs>
		<path id="SVGID_11_" d="M46.7,86.5c0,4.1,0,8.1,0,12.2c0,0.4-0.6,1-1,1c-2.8,0.1-5.6,0.1-8.4,0c-0.6,0-1.6-1-1.6-1.5
			c-0.1-7.9-0.1-15.9,0-23.8c0-0.5,0.9-1.4,1.4-1.4c2.7-0.1,5.4-0.1,8.2,0c0.5,0,1.4,0.9,1.4,1.4C46.8,78.4,46.7,82.5,46.7,86.5"/>
	</defs>
	<clipPath id="SVGID_12_">
		<use xlink:href="#SVGID_11_"  style="overflow:visible;"/>
	</clipPath>
	<rect x="25.6" y="62.8" class="st5" width="31.2" height="47"/>
</g>
<g>
	<defs>
		<path id="SVGID_13_" d="M54.7,86.4c0-4,0-8.1,0.1-12.1c0-0.5,0.8-1.3,1.3-1.3c2.8-0.1,5.5-0.1,8.3,0c0.5,0,1.3,0.9,1.4,1.3
			c0.1,8,0.1,16,0,24c0,0.5-0.9,1.3-1.4,1.4c-2.9,0.1-5.7,0.1-8.6,0c-0.4,0-1-0.7-1-1.1C54.7,94.5,54.7,90.4,54.7,86.4"/>
	</defs>
	<clipPath id="SVGID_14_">
		<use xlink:href="#SVGID_13_"  style="overflow:visible;"/>
	</clipPath>
	<rect x="44.6" y="62.8" class="st6" width="31.2" height="47"/>
</g>
<g>
	<defs>
		<path id="SVGID_15_" d="M26.2,86.3c0,4,0,8,0,12c0,1-0.2,1.5-1.4,1.4c-2.8-0.1-5.7,0-8.5-0.1c-0.4,0-1.1-0.7-1.1-1
			c-0.1-8.3-0.1-16.5,0-24.8c0-0.3,0.7-1,1.1-1c2.9-0.1,5.7-0.1,8.6,0c0.5,0,1.3,0.8,1.3,1.2C26.2,78.2,26.2,82.3,26.2,86.3"/>
	</defs>
	<clipPath id="SVGID_16_">
		<use xlink:href="#SVGID_15_"  style="overflow:visible;"/>
	</clipPath>
	<rect x="5" y="62.8" class="st7" width="31.2" height="47"/>
</g>
<g>
	<defs>
		<path id="SVGID_17_" d="M75.3,85.6c0-3.9,0-7.7,0.1-11.6c0-0.4,0.8-1,1.2-1.1c2.9-0.1,5.8-0.1,8.6,0c0.4,0,1.1,0.6,1.1,1
			c0.1,7.8,0.1,15.5,0,23.3c0,0.3-0.7,0.9-1.1,0.9c-2.9,0.1-5.9,0.1-8.8,0c-0.4,0-1-0.6-1-1C75.2,93.3,75.3,89.4,75.3,85.6"/>
	</defs>
	<clipPath id="SVGID_18_">
		<use xlink:href="#SVGID_17_"  style="overflow:visible;"/>
	</clipPath>
	<rect x="65.2" y="62.8" class="st8" width="31.2" height="45.4"/>
</g>
</svg>
