<?xml version="1.0" encoding="utf-8"?>
<!-- Generator: Adobe Illustrator 22.0.1, SVG Export Plug-In . SVG Version: 6.00 Build 0)  -->
<svg version="1.1" id="Layer_1" xmlns="http://www.w3.org/2000/svg" xmlns:xlink="http://www.w3.org/1999/xlink" x="0px" y="0px"
	 width="100px" height="100px" viewBox="0 0 100 100" style="enable-background:new 0 0 100 100;" xml:space="preserve">
<g>
	<path d="M57.4,98c-4.8,0-9.4,0-14.2,0c0-0.4,0-0.8,0-1.2c-0.3-6.6-0.4-13.3-0.8-19.9C42,69.6,41,62.3,39.6,55.1
		c-1.8-9.4-4.3-18.5-8-27.3c-4.1-9.6-9.5-18.4-17.1-25.7c-0.4-0.4-0.8-0.8-1.1-1.2c0-0.1,0.1-0.2,0.1-0.3c0.6,0.2,1.2,0.3,1.8,0.5
		c4,1.7,7.4,4.4,10.6,7.3c8.7,7.9,15,17.5,19.8,28.1c4.2,9.2,7,18.8,8.8,28.7c2,10.6,2.8,21.3,2.9,32.1C57.4,97.5,57.4,97.7,57.4,98
		z"/>
	<path d="M80.3,98c-4.9,0-9.6,0-14.4,0c0-1.8-0.1-3.5,0-5.2c0.5-8.5,2.2-16.7,5.3-24.6C75.6,56.9,82.1,47,91.2,39
		c1.8-1.6,3.9-2.8,6-4.1c0.5-0.3,1.2-0.2,1.8-0.3c-0.2,0.5-0.3,1.2-0.5,1.6c-2,3.3-4.2,6.5-6.1,9.9c-4.8,8.6-7.8,17.8-9.7,27.4
		c-1.5,7.6-2.2,15.3-2.3,23.1C80.3,96.9,80.3,97.4,80.3,98z"/>
	<path d="M38.6,98c-4.9,0-9.6,0-14.4,0c-0.2-3.8-0.3-7.7-0.7-11.4c-0.4-3.8-0.9-7.6-1.7-11.4c-0.8-3.7-1.8-7.5-3-11.1
		c-1.3-3.6-2.7-7.2-4.5-10.6c-1.7-3.4-3.8-6.6-5.9-9.9c-2-3.2-4.8-5.9-6.8-9.2C3,34.4,4.1,35,5.1,35.6c3.9,2.2,7.3,5.1,10.5,8.2
		c8.4,8.3,14.8,18.1,18.7,29.3c2.2,6.1,3.5,12.4,4,18.9C38.4,94,38.5,95.9,38.6,98z"/>
	<path d="M84.8,16.9c-0.2,0.2-0.3,0.4-0.5,0.5c-8.5,7.2-13.8,16.4-17.5,26.7c-2.3,6.5-3.9,13.2-5,20c0,0.3-0.1,0.6-0.2,0.9
		c-1-4.4-1.9-8.7-2.9-13.1c-0.3-1.5-0.8-3-1.2-4.4c-0.1-0.3-0.1-0.7,0-1c2.8-7.3,6.4-14.2,11.7-20.1c3.5-3.9,7.5-7.2,12.4-9.1
		c0.9-0.4,1.9-0.6,2.9-0.8C84.7,16.7,84.7,16.8,84.8,16.9z"/>
</g>
</svg>
