<?xml version="1.0" encoding="utf-8"?>
<!-- Generator: Adobe Illustrator 22.0.1, SVG Export Plug-In . SVG Version: 6.00 Build 0)  -->
<svg version="1.1" id="Layer_1" xmlns="http://www.w3.org/2000/svg" xmlns:xlink="http://www.w3.org/1999/xlink" x="0px" y="0px"
	 width="75px" height="75px" viewBox="0 0 75 75" style="enable-background:new 0 0 75 75;" xml:space="preserve">
<style type="text/css">
	.st0{fill:#FFFFFF;}
</style>
<g>
	<path class="st0" d="M37.8,45.8c0.3,0,0.9-0.1,1.4-0.2c0.5-0.1,1-0.2,1.5-0.4c3.3-1.2,5.4-4.2,5.5-7.7c0-2.4-0.9-4.4-2.6-6.1
		c-1.4-1.3-3-2.1-4.9-2.3c-2.2-0.3-4.2,0.2-6,1.4s-3,2.9-3.5,5c-0.7,2.7,0,5.2,1.7,7.3C32.6,44.8,34.9,45.8,37.8,45.8z"/>
	<path class="st0" d="M50.5,34.6c0.6,1.9,0.6,3.9,0.2,5.8c-0.5,2.5-1.7,4.7-3.6,6.6c-1.8,1.8-3.9,3-6.4,3.5
		c-2.8,0.7-5.6,0.5-8.3-0.6c-1.6-0.6-3-1.5-4.2-2.7c-1-0.9-1.8-2-2.5-3.2c-0.6-1.1-1-2.2-1.3-3.4c-0.4-1.7-0.4-3.4-0.1-5.1
		c0.1-0.5,0.2-0.9,0.3-1.4c-1.3,0-2.6,0-3.9,0c0,0.1,0,0.2,0,0.3c0,5.9,0,11.8,0,17.7c0,1.2,0.7,1.9,1.9,1.9c9.9,0,19.8,0,29.7,0
		c1.2,0,1.9-0.7,1.9-1.9c0-5.9,0-11.8,0-17.6c0-0.1,0-0.2,0-0.4c-1.3,0.1-2.5,0.1-3.8,0.1C50.4,34.3,50.4,34.5,50.5,34.6z"/>
	<path class="st0" d="M37.5,0C16.8,0,0,16.8,0,37.5S16.8,75,37.5,75S75,58.2,75,37.5S58.2,0,37.5,0z M59.2,54.1
		c0,0.1-0.1,0.3-0.1,0.4c-0.4,1.7-1.3,3.1-2.9,3.8c-0.6,0.3-1.3,0.4-1.9,0.6c-11.1,0-22.3,0-33.4,0c-0.1,0-0.2-0.1-0.4-0.1
		c-2.2-0.5-3.7-1.8-4.3-4c-0.1-0.1-0.2-0.3-0.3-0.6c0-11.2,0-22.3,0-33.5c0-0.1,0.1-0.2,0.1-0.4c0.3-1.7,1.3-3.1,2.9-3.9
		c0.6-0.3,1.3-0.4,1.9-0.6c11.1,0,22.2,0,33.4,0c0.2,0,0.3,0.1,0.5,0.1c2.1,0.5,3.5,1.7,4.2,3.7c0.1,0.3,0.2,0.7,0.3,1
		C59.2,31.8,59.2,42.9,59.2,54.1z"/>
	<path class="st0" d="M52.1,20.7c-1.5,0-3,0-4.5,0c-1.3,0-2.1,0.8-2.1,2.1c0,1.4,0,2.8,0,4.3c0,1.3,0.8,2.1,2.1,2.1
		c0.7,0.1,1.4,0.1,2.2,0.1s1.5,0,2.3,0c1.3,0,2.1-0.8,2.1-2.1c0-1.4,0-2.8,0-4.3C54.2,21.6,53.4,20.7,52.1,20.7z"/>
</g>
</svg>
