<?xml version="1.0" encoding="utf-8"?>
<!-- Generator: Adobe Illustrator 13.0.0, SVG Export Plug-In . SVG Version: 6.00 Build 14948)  -->
<!DOCTYPE svg PUBLIC "-//W3C//DTD SVG 1.1//EN" "http://www.w3.org/Graphics/SVG/1.1/DTD/svg11.dtd">
<svg version="1.1" id="Layer_1" xmlns="http://www.w3.org/2000/svg" xmlns:xlink="http://www.w3.org/1999/xlink" x="0px" y="0px"
	 width="300px" height="300px" viewBox="0 0 300 300" enable-background="new 0 0 300 300" xml:space="preserve">
<g opacity="0.3">
	<g>
		<path d="M287.951,13.567H22.463c-5.38,0-9.742,4.362-9.742,9.743v265.488c0,5.38,4.362,9.743,9.742,9.743h56.108V167.722h44.3
			v130.819h44.261l-31.589-31.589V86.434l31.956-32.296h87.029l31.956,32.296v180.518l-31.589,31.589h33.056
			c5.381,0,9.742-4.363,9.742-9.743V23.31C297.693,17.929,293.332,13.567,287.951,13.567z M122.871,156.953h-44.3v-39.161h44.3
			V156.953z M199.115,244.515h23.457V108.531h-23.457V244.515z"/>
	</g>
</g>
<g>
	<g>
		<path fill="#FFFFFF" d="M277.396,1.389H11.909c-5.381,0-9.743,4.362-9.743,9.743V276.62c0,5.379,4.362,9.742,9.743,9.742h56.107
			V155.543h44.3v130.819h44.261l-31.589-31.589V74.255l31.956-32.296h87.029l31.956,32.296v180.518l-31.589,31.589h33.056
			c5.38,0,9.743-4.363,9.743-9.742V11.132C287.14,5.751,282.776,1.389,277.396,1.389z M112.316,144.774h-44.3v-39.16h44.3V144.774z
			 M188.561,232.336h23.457V96.353h-23.457V232.336z"/>
	</g>
</g>
</svg>
