<?xml version="1.0" encoding="utf-8"?>
<!-- Generator: Adobe Illustrator 22.0.1, SVG Export Plug-In . SVG Version: 6.00 Build 0)  -->
<svg version="1.1" id="Layer_1" xmlns="http://www.w3.org/2000/svg" xmlns:xlink="http://www.w3.org/1999/xlink" x="0px" y="0px"
	 width="100px" height="100px" viewBox="0 0 100 100" style="enable-background:new 0 0 100 100;" xml:space="preserve">
<g id="_x37_a5IM1.tif">
	<g>
		<path d="M48.8,7.2c0.8,0,1.6,0,2.5,0c0.2,0.1,0.4,0.2,0.6,0.2c2.7,0.8,4.7,3.2,4.8,5.9c0.1,3.2-1.5,5.6-4.4,6.7
			c-0.2,0.1-0.4,0.2-0.7,0.3c1.6,0.1,3.1,0.2,4.6,0.3c6,0.4,11.8,1.6,17.2,4.3c0.2,0.1,0.5,0.2,0.7,0.4c3.6,2.1,7.2,2.1,10.9,0.4
			c2.2-1,4.5,0,5.4,2.1c0.9,2.1,0,4.4-2.2,5.3c-1.6,0.7-3.3,1.2-4.9,1.7c0,0.1,0.1,0.3,0.2,0.5c4.1,8,8.2,15.9,12.3,23.9
			c0.3,0.6,0.7,0.7,1.3,0.7c1-0.1,1.8,0,2.3,1c0,0.2,0,0.4,0,0.6c-0.6,1.3-1,2.7-1.8,3.9c-1.5,2.4-3.8,3.9-6.3,5.1
			c-5.1,2.4-10.5,3-16,2.2c-3.9-0.5-7.5-1.8-10.6-4.2c-2.3-1.8-4-3.9-4.6-6.8c-0.2-1,0.3-1.7,1.4-1.8c0.2,0,0.5,0,0.7,0
			c0.8,0.1,1.1-0.2,1.5-0.9c4-7.8,8-15.5,12.1-23.3c0.1-0.3,0.3-0.6,0.4-0.9c-1.4-0.2-2.7-0.3-3.9-0.7c-3.2-1-6.4-2.2-9.6-3.2
			c-1.9-0.6-3.9-0.9-5.9-1.4c0,16.9,0,33.5,0,50.1c1.8,0.1,3.4,0.7,4.6,2c1.3,1.3,1.9,2.8,2,4.6c2.2,0,4.2,0,6.3,0
			c3.8,0.1,6.7,2.9,6.8,6.6c-17.5,0-35,0-52.6,0c0.1-3.9,2.8-6.6,6.7-6.6c1.4,0,2.9,0,4.3,0c0.7,0,1.4,0,2.1,0
			c0.1-1.9,0.7-3.4,2-4.7c1.3-1.3,2.8-1.9,4.6-2c0-16.6,0-33.2,0-49.8c-2.5,0-4.8,0.7-7.1,1.5c-3.1,1.1-6.2,2.1-9.3,3
			c-1,0.3-2,0.3-3,0.5c0.2,0.4,0.4,0.8,0.6,1.1c3.8,7.4,7.7,14.8,11.5,22.3c0.6,1.2,1.2,1.9,2.6,1.7c1-0.1,1.7,0.7,1.3,1.7
			c-0.4,1.3-0.9,2.7-1.7,3.8c-1.5,2.3-3.7,3.9-6.2,5c-6.7,3.1-13.5,3.4-20.5,1.1C6.5,69.9,2.3,67,0.7,61.4c0-0.2,0-0.4,0-0.6
			c0.4-0.8,1.1-1.2,2-1c1,0.2,1.4-0.3,1.9-1.1c3.9-7.7,7.9-15.3,11.8-22.9c0.2-0.4,0.4-0.7,0.5-1c-1.7-0.6-3.3-1-4.9-1.7
			c-2.3-1-3.2-3.3-2.2-5.4c1-2.1,3.3-2.9,5.6-1.9c3.3,1.5,6.6,1.6,9.8-0.1c6-3.2,12.5-4.8,19.4-5.1c1.3-0.1,2.6-0.2,4.1-0.2
			c-0.4-0.1-0.6-0.2-0.8-0.3c-2.9-1.1-4.5-3.5-4.4-6.7c0.1-2.7,2-5.1,4.9-5.9C48.5,7.4,48.6,7.3,48.8,7.2z M10.7,59.7
			c6.6,0,13,0,19.6,0c-3.3-6.1-6.5-12.2-9.8-18.4C17.1,47.6,13.9,53.6,10.7,59.7z M69.8,59.7c6.6,0,13,0,19.6,0
			c-3.3-6.1-6.5-12.2-9.8-18.4C76.3,47.6,73,53.6,69.8,59.7z"/>
	</g>
</g>
</svg>
