<?xml version="1.0" encoding="utf-8"?>
<!-- Generator: Adobe Illustrator 22.0.1, SVG Export Plug-In . SVG Version: 6.00 Build 0)  -->
<svg version="1.1" xmlns="http://www.w3.org/2000/svg" xmlns:xlink="http://www.w3.org/1999/xlink" x="0px" y="0px" width="213px"
	 height="154px" viewBox="0 0 213 154" style="enable-background:new 0 0 213 154;" xml:space="preserve">
<style type="text/css">
	.st0{fill:#00557C;}
	.st1{fill:#FCE200;}
</style>
<g id="Layer_2">
</g>
<g id="Layer_1">
	<g>
		<path class="st0" d="M6.9,135.9h4l1.1,6.4h0l1.1-6.4h4v10.8h-2.6v-8h0l-1.5,8h-2l-1.5-8h0v8H6.9V135.9z"/>
		<path class="st0" d="M18.4,135.9h2.7v2h-2.7V135.9z M18.4,138.5h2.7v8.2h-2.7V138.5z"/>
		<path class="st0" d="M26.3,135.9H29v10.8h-2.6v-1.1h0c-0.3,0.9-0.9,1.3-1.9,1.3c-1.8,0-2.5-1.4-2.5-4.5c0-3.1,1-4.1,2.5-4.1
			c0.8,0,1.4,0.3,1.7,1.1h0V135.9z M25.5,144.8c0.6,0,0.8-0.5,0.8-2.3c0-1.8-0.1-2.3-0.8-2.3c-0.6,0-0.8,0.5-0.8,2.3
			C24.8,144.3,24.9,144.8,25.5,144.8z"/>
		<path class="st0" d="M30,141.1h4.7v2.3H30V141.1z"/>
		<path class="st0" d="M37.6,135.9h3.5l2.6,10.8h-3l-0.3-1.9h-2.2l-0.3,1.9h-3L37.6,135.9z M39.4,138.1L39.4,138.1l-0.8,4.6h1.6
			L39.4,138.1z"/>
		<path class="st0" d="M43.7,138.5h0.9v-2.4h2.7v2.4h1.1v1.8h-1.1v3.9c0,0.5,0.2,0.6,0.7,0.6h0.4v1.8c-0.5,0.1-1,0.1-1.5,0.1
			c-1.7,0-2.3-0.3-2.3-2.1v-4.3h-0.9V138.5z"/>
		<path class="st0" d="M49,135.9h2.7v10.8H49V135.9z"/>
		<path class="st0" d="M56.8,146.6c-0.1-0.3-0.1-0.6-0.2-0.9h0c-0.3,0.7-1,1.1-1.8,1.1c-1.6,0-2.3-1-2.3-2.4c0-1.5,0.5-2.2,2.3-2.6
			l1.1-0.3c0.6-0.1,0.8-0.4,0.8-0.9c0-0.5-0.2-0.8-0.7-0.8c-0.5,0-0.8,0.2-0.8,1.1h-2.4c0-2.3,1.9-2.7,3.1-2.7
			c1.9,0,3.2,0.5,3.2,2.6v4c0,0.8,0,1.3,0.3,1.8H56.8z M56.7,143.7v-1h0c-0.2,0.2-0.5,0.2-0.9,0.4c-0.4,0.2-0.6,0.5-0.6,1.1
			c0,0.5,0.3,0.9,0.7,0.9C56.4,145,56.7,144.6,56.7,143.7z"/>
		<path class="st0" d="M60.4,138.5h2.6v1h0c0.3-0.8,1-1.2,2-1.2c1.2,0,2.1,0.5,2.1,2.2v6.2h-2.7v-5.4c0-0.7-0.2-1-0.7-1
			c-0.5,0-0.7,0.3-0.7,1v5.4h-2.7V138.5z"/>
		<path class="st0" d="M67.8,138.5h0.9v-2.4h2.7v2.4h1.1v1.8h-1.1v3.9c0,0.5,0.2,0.6,0.7,0.6h0.4v1.8c-0.5,0.1-1,0.1-1.5,0.1
			c-1.7,0-2.3-0.3-2.3-2.1v-4.3h-0.9V138.5z"/>
		<path class="st0" d="M73.1,135.9h2.7v2h-2.7V135.9z M73.1,138.5h2.7v8.2h-2.7V138.5z"/>
		<path class="st0" d="M81.1,141.7c0-0.7-0.1-1.1-0.2-1.3c-0.1-0.3-0.3-0.3-0.6-0.3c-0.6,0-0.8,0.5-0.8,2.5c0,2,0.2,2.5,0.8,2.5
			c0.5,0,0.8-0.3,0.8-1.3v-0.5h2.5c0,1.3-0.2,2.2-0.7,2.8c-0.5,0.6-1.4,0.9-2.5,0.9c-2.1,0-3.5-0.6-3.5-4.1c0-3.9,1.6-4.4,3.7-4.4
			c2.4,0,3.1,1.4,3.1,3.4H81.1z"/>
		<path class="st0" d="M92.6,139v-0.3c0-0.6-0.3-1.2-0.8-1.2c-0.6,0-0.9,0.5-0.9,0.9c0,2.1,4.6,1.1,4.6,5c0,2.3-1.3,3.3-3.8,3.3
			c-2.3,0-3.6-0.8-3.6-3v-0.4h2.7v0.3c0,0.9,0.4,1.3,0.9,1.3c0.6,0,0.9-0.5,0.9-1c0-2.1-4.4-1.1-4.4-4.9c0-2.2,1.2-3.4,3.5-3.4
			c2.5,0,3.5,1,3.5,3.3H92.6z"/>
		<path class="st0" d="M95.8,138.5h0.9v-2.4h2.7v2.4h1.1v1.8h-1.1v3.9c0,0.5,0.2,0.6,0.7,0.6h0.4v1.8c-0.5,0.1-1,0.1-1.5,0.1
			c-1.7,0-2.3-0.3-2.3-2.1v-4.3h-0.9V138.5z"/>
		<path class="st0" d="M101.1,138.5h2.6v1.3h0c0.3-1,1-1.5,1.8-1.5h0.4v2.5c-0.2,0-0.5-0.1-0.7-0.1c-1,0-1.5,0.4-1.5,1.4v4.4h-2.7
			V138.5z"/>
		<path class="st0" d="M110.5,146.6c-0.1-0.3-0.1-0.6-0.2-0.9h0c-0.3,0.7-1,1.1-1.8,1.1c-1.6,0-2.3-1-2.3-2.4c0-1.5,0.5-2.2,2.3-2.6
			l1.1-0.3c0.6-0.1,0.8-0.4,0.8-0.9c0-0.5-0.2-0.8-0.7-0.8c-0.5,0-0.8,0.2-0.8,1.1h-2.4c0-2.3,1.9-2.7,3.1-2.7
			c1.9,0,3.2,0.5,3.2,2.6v4c0,0.8,0,1.3,0.3,1.8H110.5z M110.3,143.7v-1h0c-0.2,0.2-0.5,0.2-0.9,0.4c-0.4,0.2-0.6,0.5-0.6,1.1
			c0,0.5,0.3,0.9,0.7,0.9C110,145,110.3,144.6,110.3,143.7z"/>
		<path class="st0" d="M113.5,138.5h0.9v-2.4h2.7v2.4h1.1v1.8h-1.1v3.9c0,0.5,0.2,0.6,0.7,0.6h0.4v1.8c-0.5,0.1-1,0.1-1.5,0.1
			c-1.7,0-2.3-0.3-2.3-2.1v-4.3h-0.9V138.5z"/>
		<path class="st0" d="M121.3,143v1.1c0,0.9,0.4,1.1,0.7,1.1c0.5,0,0.8-0.3,0.8-1.4h2.5c0,2-1,3.1-3.2,3.1c-2.6,0-3.5-1.2-3.5-4.3
			c0-3.1,1-4.3,3.5-4.3c2.2,0,3.3,1,3.3,3.9v0.8H121.3z M122.8,141.2c0-0.9-0.2-1.3-0.8-1.3c-0.6,0-0.7,0.4-0.7,1.3v0.4h1.5V141.2z"
			/>
		<path class="st0" d="M130.3,138.5h2.5v8c0,2.2-1.5,2.9-3.4,2.9c-1.8,0-3.1-0.4-3.2-2.3h2.5c0,0.4,0.3,0.6,0.7,0.6
			c0.4,0,0.8-0.1,0.8-1v-1.6h0c-0.3,0.9-1.1,1.2-1.8,1.2c-1.1,0-2.4-0.6-2.4-4c0-3.2,0.9-4.1,2.5-4.1c0.8,0,1.5,0.4,1.8,1.3h0V138.5
			z M129.5,144.4c0.5,0,0.8-0.3,0.8-2.1c0-1.7-0.3-2.1-0.8-2.1c-0.5,0-0.8,0.3-0.8,2.1C128.7,144,128.9,144.4,129.5,144.4z"/>
		<path class="st0" d="M134,135.9h2.7v2H134V135.9z M134,138.5h2.7v8.2H134V138.5z"/>
		<path class="st0" d="M142,141.7c0-0.7-0.1-1.1-0.2-1.3c-0.1-0.3-0.3-0.3-0.6-0.3c-0.6,0-0.8,0.5-0.8,2.5c0,2,0.2,2.5,0.8,2.5
			c0.5,0,0.8-0.3,0.8-1.3v-0.5h2.5c0,1.3-0.2,2.2-0.7,2.8c-0.5,0.6-1.4,0.9-2.5,0.9c-2.1,0-3.5-0.6-3.5-4.1c0-3.9,1.6-4.4,3.7-4.4
			c2.4,0,3.1,1.4,3.1,3.4H142z"/>
		<path class="st0" d="M153.5,139v-0.3c0-0.6-0.3-1.2-0.8-1.2c-0.6,0-0.9,0.5-0.9,0.9c0,2.1,4.6,1.1,4.6,5c0,2.3-1.3,3.3-3.8,3.3
			c-2.3,0-3.6-0.8-3.6-3v-0.4h2.7v0.3c0,0.9,0.4,1.3,0.9,1.3c0.6,0,0.9-0.5,0.9-1c0-2.1-4.4-1.1-4.4-4.9c0-2.2,1.2-3.4,3.5-3.4
			c2.5,0,3.5,1,3.5,3.3H153.5z"/>
		<path class="st0" d="M160.5,146.8c-3.2,0-3.5-1.9-3.5-4.3c0-2.1,0.4-4.3,3.5-4.3c3.2,0,3.5,1.9,3.5,4.3
			C164,144.7,163.6,146.8,160.5,146.8z M160.5,145.1c0.6,0,0.8-0.5,0.8-2.5c0-2.1-0.1-2.5-0.8-2.5c-0.6,0-0.8,0.5-0.8,2.5
			C159.7,144.6,159.9,145.1,160.5,145.1z"/>
		<path class="st0" d="M164.9,135.9h2.7v10.8h-2.7V135.9z"/>
		<path class="st0" d="M168.7,138.5h2.7v5.4c0,0.7,0.2,1,0.7,1c0.5,0,0.7-0.3,0.7-1v-5.4h2.7v8.2h-2.6v-1h0c-0.3,0.8-1,1.2-2,1.2
			c-1.2,0-2.1-0.5-2.1-2.2V138.5z"/>
		<path class="st0" d="M176.1,138.5h0.9v-2.4h2.7v2.4h1.1v1.8h-1.1v3.9c0,0.5,0.2,0.6,0.7,0.6h0.4v1.8c-0.5,0.1-1,0.1-1.5,0.1
			c-1.7,0-2.3-0.3-2.3-2.1v-4.3h-0.9V138.5z"/>
		<path class="st0" d="M181.4,135.9h2.7v2h-2.7V135.9z M181.4,138.5h2.7v8.2h-2.7V138.5z"/>
		<path class="st0" d="M188.6,146.8c-3.2,0-3.5-1.9-3.5-4.3c0-2.1,0.4-4.3,3.5-4.3c3.2,0,3.5,1.9,3.5,4.3
			C192,144.7,191.6,146.8,188.6,146.8z M188.6,145.1c0.6,0,0.8-0.5,0.8-2.5c0-2.1-0.1-2.5-0.8-2.5c-0.6,0-0.8,0.5-0.8,2.5
			C187.8,144.6,187.9,145.1,188.6,145.1z"/>
		<path class="st0" d="M192.9,138.5h2.6v1h0c0.3-0.8,1-1.2,2-1.2c1.2,0,2.1,0.5,2.1,2.2v6.2H197v-5.4c0-0.7-0.2-1-0.7-1
			c-0.5,0-0.7,0.3-0.7,1v5.4h-2.7V138.5z"/>
		<path class="st0" d="M202.9,144.1c0,0.3,0.1,0.6,0.2,0.8c0.1,0.2,0.3,0.3,0.6,0.3c0.4,0,0.8-0.3,0.8-0.7c0-1.4-4-0.6-4-3.7
			c0-1.4,1-2.5,3.3-2.5c2,0,3.1,0.9,3.1,2.6h-2.4c0-0.7-0.3-0.9-0.7-0.9c-0.4,0-0.7,0.2-0.7,0.6c0,1.3,4,0.4,4,3.6
			c0,1.6-1.2,2.7-3.3,2.7c-2.3,0-3.2-1-3.2-2.7H202.9z"/>
	</g>
	<g>
		<polygon class="st0" points="89,121.4 87.8,128 96.7,128 95.7,121.4 		"/>
		<path class="st0" d="M8,90.9h23c0.7,2.2,1.5,4.9,2.2,7.9l2.7,9.4l4.4-17.3h24.6V128h3.3l9.7-37.1h27.4l10.8,37.1h14
			c-1.1-0.2-2.1-0.4-3.1-0.7c-3.6-1-5.9-2.2-7-3.7c-1.1-1.5-1.7-3.7-1.7-6.4v-2.4h17.6v4.5c0,1.4,0.2,2.3,0.7,2.7
			c0.5,0.4,1.4,0.6,2.6,0.6c1.3,0,2.2-0.3,2.8-0.8c0.6-0.5,0.9-1.3,0.9-2.2c0-2.2-0.6-3.6-1.8-4.3c-1.2-0.7-4.2-1.8-8.9-3.4
			c-4.7-1.6-7.8-2.7-9.4-3.5c-1.5-0.7-2.8-1.7-3.8-3c-1-1.3-1.5-2.9-1.5-4.9c0-2.8,0.7-4.9,2.1-6.2c1.4-1.3,3.7-2.3,6.9-3.1
			c3.2-0.7,7-1.1,11.5-1.1c4.9,0,9.1,0.4,12.6,1.2c3.5,0.8,5.8,1.8,6.9,3.1c1.1,1.2,1.7,3.3,1.7,6.3v1.5h-17.6v-2.7
			c0-1.3-0.2-2.1-0.7-2.5c-0.5-0.4-1.2-0.5-2.2-0.5c-1.1,0-2,0.2-2.6,0.7c-0.6,0.5-0.9,1.2-0.9,2.2c0,1.2,0.3,2.2,1,2.8
			c0.6,0.6,2.4,1.4,5.4,2.3c8.4,2.5,13.7,4.6,15.9,6.3c2.2,1.6,3.3,4.3,3.3,7.9c0,2.6-0.6,4.6-1.8,5.8c-1.2,1.3-3.6,2.3-7,3.2
			c-0.8,0.2-1.6,0.3-2.4,0.5h28c-1.1-0.2-2.1-0.4-3.1-0.7c-3.6-1-5.9-2.2-7-3.7c-1.1-1.5-1.7-3.7-1.7-6.4v-2.4h17.6v4.5
			c0,1.4,0.2,2.3,0.7,2.7c0.5,0.4,1.4,0.6,2.6,0.6c1.3,0,2.2-0.3,2.8-0.8c0.6-0.5,0.9-1.3,0.9-2.2c0-2.2-0.6-3.6-1.8-4.3
			c-1.2-0.7-4.2-1.8-8.9-3.4c-4.7-1.6-7.8-2.7-9.4-3.5c-1.5-0.7-2.8-1.7-3.8-3c-1-1.3-1.5-2.9-1.5-4.9c0-2.8,0.7-4.9,2.1-6.2
			c1.4-1.3,3.7-2.3,6.9-3.1c3.2-0.7,7-1.1,11.5-1.1c4.9,0,9.1,0.4,12.6,1.2c3.5,0.8,5.8,1.8,6.9,3.1c1.1,1.2,1.7,3.3,1.7,6.3v1.5
			h-17.6v-2.7c0-1.3-0.2-2.1-0.7-2.5c-0.5-0.4-1.2-0.5-2.2-0.5c-1.1,0-2,0.2-2.6,0.7c-0.6,0.5-0.9,1.2-0.9,2.2c0,1.2,0.3,2.2,1,2.8
			c0.6,0.6,2.4,1.4,5.4,2.3c8.4,2.5,13.7,4.6,15.9,6.3c1.5,1.2,2.5,2.8,3,5V6.8C172.1,12.3,62,33.1,8,90.9z"/>
		<path class="st1" d="M202.2,5.2H6.8V88C25.7,61.3,78.7,7.8,202.2,5.2z"/>
		<path class="st0" d="M92.3,99.2c-1.9,7.1-3.1,12.3-3.6,15.6h6.5C94.3,110.6,93.3,105.4,92.3,99.2z"/>
		<path class="st0" d="M199.8,127.6c-0.8,0.2-1.6,0.3-2.4,0.5h11v-6.6c-0.3,1.2-0.8,2.3-1.5,3C205.6,125.7,203.2,126.7,199.8,127.6z
			"/>
		<polygon class="st0" points="41.8,128 48.4,128 48.4,103 		"/>
		<polygon class="st0" points="23.1,128 30,128 23.1,103.6 		"/>
	</g>
</g>
</svg>
