<?xml version="1.0" encoding="utf-8"?>
<!-- Generator: Adobe Illustrator 22.0.1, SVG Export Plug-In . SVG Version: 6.00 Build 0)  -->
<svg version="1.1" xmlns="http://www.w3.org/2000/svg" xmlns:xlink="http://www.w3.org/1999/xlink" x="0px" y="0px" width="201.5px"
	 height="144.2px" viewBox="0 0 201.5 144.2" style="enable-background:new 0 0 201.5 144.2;" xml:space="preserve">
<style type="text/css">
	.st0{fill:#1B4D6B;}
	.st1{fill:#00557C;}
	.st2{fill:#F9E319;}
</style>
<g id="Layer_2">
</g>
<g id="Layer_1">
	<g>
		<path class="st0" d="M0.1,130.6h4l1.1,6.4h0l1.1-6.4h4v10.8H7.8v-8h0l-1.5,8h-2l-1.5-8h0v8H0.1V130.6z"/>
		<path class="st0" d="M11.6,130.6h2.7v2h-2.7V130.6z M11.6,133.2h2.7v8.2h-2.7V133.2z"/>
		<path class="st0" d="M19.5,130.6h2.7v10.8h-2.6v-1.1h0c-0.3,0.9-0.9,1.3-1.9,1.3c-1.8,0-2.5-1.4-2.5-4.5c0-3.1,1-4.1,2.5-4.1
			c0.8,0,1.4,0.3,1.7,1.1h0V130.6z M18.7,139.6c0.6,0,0.8-0.5,0.8-2.3c0-1.8-0.1-2.3-0.8-2.3c-0.6,0-0.8,0.5-0.8,2.3
			C17.9,139.1,18.1,139.6,18.7,139.6z"/>
		<path class="st0" d="M23.2,135.9H28v2.3h-4.7V135.9z"/>
		<path class="st0" d="M30.8,130.6h3.5l2.6,10.8h-3l-0.3-1.9h-2.2l-0.3,1.9h-3L30.8,130.6z M32.6,132.8L32.6,132.8l-0.8,4.6h1.6
			L32.6,132.8z"/>
		<path class="st0" d="M36.8,133.2h0.9v-2.4h2.7v2.4h1.1v1.8h-1.1v3.9c0,0.5,0.2,0.6,0.7,0.6h0.4v1.8c-0.5,0.1-1,0.1-1.5,0.1
			c-1.7,0-2.3-0.3-2.3-2.1v-4.3h-0.9V133.2z"/>
		<path class="st0" d="M42.2,130.6h2.7v10.8h-2.7V130.6z"/>
		<path class="st0" d="M50,141.4c-0.1-0.3-0.1-0.6-0.2-0.9h0c-0.3,0.7-1,1.1-1.8,1.1c-1.6,0-2.3-1-2.3-2.4c0-1.5,0.5-2.2,2.3-2.6
			l1.1-0.3c0.6-0.1,0.8-0.4,0.8-0.9c0-0.5-0.2-0.8-0.7-0.8c-0.5,0-0.8,0.2-0.8,1.1H46c0-2.3,1.9-2.7,3.1-2.7c1.9,0,3.2,0.5,3.2,2.6
			v4c0,0.8,0,1.3,0.3,1.8H50z M49.8,138.4v-1h0c-0.2,0.2-0.5,0.2-0.9,0.4c-0.4,0.2-0.6,0.5-0.6,1.1c0,0.5,0.3,0.9,0.7,0.9
			C49.6,139.8,49.8,139.3,49.8,138.4z"/>
		<path class="st0" d="M53.6,133.2h2.6v1h0c0.3-0.8,1-1.2,2-1.2c1.2,0,2.1,0.5,2.1,2.2v6.2h-2.7V136c0-0.7-0.2-1-0.7-1
			c-0.5,0-0.7,0.3-0.7,1v5.4h-2.7V133.2z"/>
		<path class="st0" d="M61,133.2h0.9v-2.4h2.7v2.4h1.1v1.8h-1.1v3.9c0,0.5,0.2,0.6,0.7,0.6h0.4v1.8c-0.5,0.1-1,0.1-1.5,0.1
			c-1.7,0-2.3-0.3-2.3-2.1v-4.3H61V133.2z"/>
		<path class="st0" d="M66.3,130.6H69v2h-2.7V130.6z M66.3,133.2H69v8.2h-2.7V133.2z"/>
		<path class="st0" d="M74.2,136.4c0-0.7-0.1-1.1-0.2-1.3c-0.1-0.3-0.3-0.3-0.6-0.3c-0.6,0-0.8,0.5-0.8,2.5c0,2,0.2,2.5,0.8,2.5
			c0.5,0,0.8-0.3,0.8-1.3V138h2.5c0,1.3-0.2,2.2-0.7,2.8c-0.5,0.6-1.4,0.9-2.5,0.9c-2.1,0-3.5-0.6-3.5-4.1c0-3.9,1.6-4.4,3.7-4.4
			c2.4,0,3.1,1.4,3.1,3.4H74.2z"/>
		<path class="st0" d="M85.7,133.7v-0.3c0-0.6-0.3-1.2-0.8-1.2c-0.6,0-0.9,0.5-0.9,0.9c0,2.1,4.6,1.1,4.6,5c0,2.3-1.3,3.3-3.8,3.3
			c-2.3,0-3.6-0.8-3.6-3v-0.4h2.7v0.3c0,0.9,0.4,1.3,0.9,1.3c0.6,0,0.9-0.5,0.9-1c0-2.1-4.4-1.1-4.4-4.9c0-2.2,1.2-3.4,3.5-3.4
			c2.5,0,3.5,1,3.5,3.3H85.7z"/>
		<path class="st0" d="M89,133.2h0.9v-2.4h2.7v2.4h1.1v1.8h-1.1v3.9c0,0.5,0.2,0.6,0.7,0.6h0.4v1.8c-0.5,0.1-1,0.1-1.5,0.1
			c-1.7,0-2.3-0.3-2.3-2.1v-4.3H89V133.2z"/>
		<path class="st0" d="M94.2,133.2h2.6v1.3h0c0.3-1,1-1.5,1.8-1.5h0.4v2.5c-0.2,0-0.5-0.1-0.7-0.1c-1,0-1.5,0.4-1.5,1.4v4.4h-2.7
			V133.2z"/>
		<path class="st0" d="M103.6,141.4c-0.1-0.3-0.1-0.6-0.2-0.9h0c-0.3,0.7-1,1.1-1.8,1.1c-1.6,0-2.3-1-2.3-2.4c0-1.5,0.5-2.2,2.3-2.6
			l1.1-0.3c0.6-0.1,0.8-0.4,0.8-0.9c0-0.5-0.2-0.8-0.7-0.8c-0.5,0-0.8,0.2-0.8,1.1h-2.4c0-2.3,1.9-2.7,3.1-2.7
			c1.9,0,3.2,0.5,3.2,2.6v4c0,0.8,0,1.3,0.3,1.8H103.6z M103.5,138.4v-1h0c-0.2,0.2-0.5,0.2-0.9,0.4c-0.4,0.2-0.6,0.5-0.6,1.1
			c0,0.5,0.3,0.9,0.7,0.9C103.2,139.8,103.5,139.3,103.5,138.4z"/>
		<path class="st0" d="M106.7,133.2h0.9v-2.4h2.7v2.4h1.1v1.8h-1.1v3.9c0,0.5,0.2,0.6,0.7,0.6h0.4v1.8c-0.5,0.1-1,0.1-1.5,0.1
			c-1.7,0-2.3-0.3-2.3-2.1v-4.3h-0.9V133.2z"/>
		<path class="st0" d="M114.5,137.8v1.1c0,0.9,0.4,1.1,0.7,1.1c0.5,0,0.8-0.3,0.8-1.4h2.5c0,2-1,3.1-3.2,3.1c-2.6,0-3.5-1.2-3.5-4.3
			c0-3.1,1-4.3,3.5-4.3c2.2,0,3.3,1,3.3,3.9v0.8H114.5z M116,135.9c0-0.9-0.2-1.3-0.8-1.3c-0.6,0-0.7,0.4-0.7,1.3v0.4h1.5V135.9z"/>
		<path class="st0" d="M123.5,133.2h2.5v8c0,2.2-1.5,2.9-3.4,2.9c-1.8,0-3.1-0.4-3.2-2.3h2.5c0,0.4,0.3,0.6,0.7,0.6
			c0.4,0,0.8-0.1,0.8-1V140h0c-0.3,0.9-1.1,1.2-1.8,1.2c-1.1,0-2.4-0.6-2.4-4c0-3.2,0.9-4.1,2.5-4.1c0.8,0,1.5,0.4,1.8,1.3h0V133.2z
			 M122.6,139.2c0.5,0,0.8-0.3,0.8-2.1c0-1.7-0.3-2.1-0.8-2.1c-0.5,0-0.8,0.3-0.8,2.1C121.8,138.8,122.1,139.2,122.6,139.2z"/>
		<path class="st0" d="M127.2,130.6h2.7v2h-2.7V130.6z M127.2,133.2h2.7v8.2h-2.7V133.2z"/>
		<path class="st0" d="M135.1,136.4c0-0.7-0.1-1.1-0.2-1.3c-0.1-0.3-0.3-0.3-0.6-0.3c-0.6,0-0.8,0.5-0.8,2.5c0,2,0.2,2.5,0.8,2.5
			c0.5,0,0.8-0.3,0.8-1.3V138h2.5c0,1.3-0.2,2.2-0.7,2.8c-0.5,0.6-1.4,0.9-2.5,0.9c-2.1,0-3.5-0.6-3.5-4.1c0-3.9,1.6-4.4,3.7-4.4
			c2.4,0,3.1,1.4,3.1,3.4H135.1z"/>
		<path class="st0" d="M146.6,133.7v-0.3c0-0.6-0.3-1.2-0.8-1.2c-0.6,0-0.9,0.5-0.9,0.9c0,2.1,4.6,1.1,4.6,5c0,2.3-1.3,3.3-3.8,3.3
			c-2.3,0-3.6-0.8-3.6-3v-0.4h2.7v0.3c0,0.9,0.4,1.3,0.9,1.3c0.6,0,0.9-0.5,0.9-1c0-2.1-4.4-1.1-4.4-4.9c0-2.2,1.2-3.4,3.5-3.4
			c2.5,0,3.5,1,3.5,3.3H146.6z"/>
		<path class="st0" d="M153.7,141.6c-3.2,0-3.5-1.9-3.5-4.3c0-2.1,0.4-4.3,3.5-4.3c3.2,0,3.5,1.9,3.5,4.3
			C157.2,139.5,156.8,141.6,153.7,141.6z M153.7,139.9c0.6,0,0.8-0.5,0.8-2.5c0-2.1-0.1-2.5-0.8-2.5c-0.6,0-0.8,0.5-0.8,2.5
			C152.9,139.4,153.1,139.9,153.7,139.9z"/>
		<path class="st0" d="M158.1,130.6h2.7v10.8h-2.7V130.6z"/>
		<path class="st0" d="M161.9,133.2h2.7v5.4c0,0.7,0.2,1,0.7,1c0.5,0,0.7-0.3,0.7-1v-5.4h2.7v8.2h-2.6v-1h0c-0.3,0.8-1,1.2-2,1.2
			c-1.2,0-2.1-0.5-2.1-2.2V133.2z"/>
		<path class="st0" d="M169.3,133.2h0.9v-2.4h2.7v2.4h1.1v1.8h-1.1v3.9c0,0.5,0.2,0.6,0.7,0.6h0.4v1.8c-0.5,0.1-1,0.1-1.5,0.1
			c-1.7,0-2.3-0.3-2.3-2.1v-4.3h-0.9V133.2z"/>
		<path class="st0" d="M174.6,130.6h2.7v2h-2.7V130.6z M174.6,133.2h2.7v8.2h-2.7V133.2z"/>
		<path class="st0" d="M181.7,141.6c-3.2,0-3.5-1.9-3.5-4.3c0-2.1,0.4-4.3,3.5-4.3c3.2,0,3.5,1.9,3.5,4.3
			C185.2,139.5,184.8,141.6,181.7,141.6z M181.7,139.9c0.6,0,0.8-0.5,0.8-2.5c0-2.1-0.1-2.5-0.8-2.5c-0.6,0-0.8,0.5-0.8,2.5
			C181,139.4,181.1,139.9,181.7,139.9z"/>
		<path class="st0" d="M186.1,133.2h2.6v1h0c0.3-0.8,1-1.2,2-1.2c1.2,0,2.1,0.5,2.1,2.2v6.2h-2.7V136c0-0.7-0.2-1-0.7-1
			s-0.7,0.3-0.7,1v5.4h-2.7V133.2z"/>
		<path class="st0" d="M196.1,138.9c0,0.3,0.1,0.6,0.2,0.8c0.1,0.2,0.3,0.3,0.6,0.3c0.4,0,0.8-0.3,0.8-0.7c0-1.4-4-0.6-4-3.7
			c0-1.4,1-2.5,3.3-2.5c2,0,3.1,0.9,3.1,2.6h-2.4c0-0.7-0.3-0.9-0.7-0.9c-0.4,0-0.7,0.2-0.7,0.6c0,1.3,4,0.4,4,3.6
			c0,1.6-1.2,2.7-3.3,2.7c-2.3,0-3.2-1-3.2-2.7H196.1z"/>
	</g>
	<g>
		<polygon class="st1" points="82.1,116.2 81,122.8 89.9,122.8 88.9,116.2 		"/>
		<path class="st0" d="M1.2,85.7h23c0.7,2.2,1.5,4.9,2.2,7.9l2.7,9.4l4.4-17.3h24.6v37.1h3.3l9.7-37.1h27.4l10.8,37.1h14
			c-1.1-0.2-2.1-0.4-3.1-0.7c-3.6-1-5.9-2.2-7-3.7c-1.1-1.5-1.7-3.7-1.7-6.4v-2.4h17.6v4.5c0,1.4,0.2,2.3,0.7,2.7
			c0.5,0.4,1.4,0.6,2.6,0.6c1.3,0,2.2-0.3,2.8-0.8c0.6-0.5,0.9-1.3,0.9-2.2c0-2.2-0.6-3.6-1.8-4.3c-1.2-0.7-4.2-1.8-8.9-3.4
			c-4.7-1.6-7.8-2.7-9.4-3.5c-1.5-0.7-2.8-1.7-3.8-3c-1-1.3-1.5-2.9-1.5-4.9c0-2.8,0.7-4.9,2.1-6.2c1.4-1.3,3.7-2.3,6.9-3.1
			c3.2-0.7,7-1.1,11.5-1.1c4.9,0,9.1,0.4,12.6,1.2c3.5,0.8,5.8,1.8,6.9,3.1s1.7,3.3,1.7,6.3V97H135v-2.7c0-1.3-0.2-2.1-0.7-2.5
			c-0.5-0.4-1.2-0.5-2.2-0.5c-1.1,0-2,0.2-2.6,0.7c-0.6,0.5-0.9,1.2-0.9,2.2c0,1.2,0.3,2.2,1,2.8c0.6,0.6,2.4,1.4,5.4,2.3
			c8.4,2.5,13.7,4.6,15.9,6.3c2.2,1.6,3.3,4.3,3.3,7.9c0,2.6-0.6,4.6-1.8,5.8c-1.2,1.3-3.6,2.3-7,3.2c-0.8,0.2-1.6,0.3-2.4,0.5h28
			c-1.1-0.2-2.1-0.4-3.1-0.7c-3.6-1-5.9-2.2-7-3.7c-1.1-1.5-1.7-3.7-1.7-6.4v-2.4h17.6v4.5c0,1.4,0.2,2.3,0.7,2.7
			c0.5,0.4,1.4,0.6,2.6,0.6c1.3,0,2.2-0.3,2.8-0.8c0.6-0.5,0.9-1.3,0.9-2.2c0-2.2-0.6-3.6-1.8-4.3c-1.2-0.7-4.2-1.8-8.9-3.4
			c-4.7-1.6-7.8-2.7-9.4-3.5c-1.5-0.7-2.8-1.7-3.8-3c-1-1.3-1.5-2.9-1.5-4.9c0-2.8,0.7-4.9,2.1-6.2c1.4-1.3,3.7-2.3,6.9-3.1
			c3.2-0.7,7-1.1,11.5-1.1c4.9,0,9.1,0.4,12.6,1.2c3.5,0.8,5.8,1.8,6.9,3.1s1.7,3.3,1.7,6.3V97h-17.6v-2.7c0-1.3-0.2-2.1-0.7-2.5
			c-0.5-0.4-1.2-0.5-2.2-0.5c-1.1,0-2,0.2-2.6,0.7c-0.6,0.5-0.9,1.2-0.9,2.2c0,1.2,0.3,2.2,1,2.8c0.6,0.6,2.4,1.4,5.4,2.3
			c8.4,2.5,13.7,4.6,15.9,6.3c1.5,1.2,2.5,2.8,3,5V1.6C165.2,7,55.2,27.9,1.2,85.7z"/>
		<path class="st2" d="M195.4,0H0v82.8C18.9,56.1,71.9,2.6,195.4,0z"/>
		<path class="st1" d="M85.5,94c-1.9,7.1-3.1,12.3-3.6,15.6h6.5C87.5,105.4,86.5,100.2,85.5,94z"/>
		<path class="st1" d="M192.9,122.3c-0.8,0.2-1.6,0.3-2.4,0.5h11v-6.6c-0.3,1.2-0.8,2.3-1.5,3C198.8,120.4,196.4,121.5,192.9,122.3z
			"/>
		<polygon class="st1" points="35,122.8 41.6,122.8 41.5,97.8 		"/>
		<polygon class="st1" points="16.3,122.8 23.2,122.8 16.3,98.4 		"/>
	</g>
</g>
</svg>
