<?xml version="1.0" encoding="utf-8"?>
<!-- Generator: Adobe Illustrator 22.0.1, SVG Export Plug-In . SVG Version: 6.00 Build 0)  -->
<svg version="1.1" id="Layer_1" xmlns="http://www.w3.org/2000/svg" xmlns:xlink="http://www.w3.org/1999/xlink" x="0px" y="0px"
	 width="100px" height="100px" viewBox="0 0 100 100" style="enable-background:new 0 0 100 100;" xml:space="preserve">
<style type="text/css">
	.st0{fill:#FFFFFF;}
</style>
<path class="st0" d="M50.2,1.5C23.3,1.5,1.5,23.3,1.5,50.2s21.8,48.7,48.7,48.7s48.7-21.8,48.7-48.7S77.1,1.5,50.2,1.5z M77.2,70.4
	h-53c-2.2,0-3.9-1.8-3.9-3.9c0-2.2,1.8-3.9,3.9-3.9h53c2.2,0,3.9,1.8,3.9,3.9C81.2,68.6,79.4,70.4,77.2,70.4z M81.2,49.8
	c0,2.2-1.8,3.9-3.9,3.9h-53c-2.2,0-3.9-1.8-3.9-3.9l0,0c0-2.2,1.8-3.9,3.9-3.9h53C79.4,45.9,81.2,47.6,81.2,49.8L81.2,49.8z
	 M77.2,37.1h-53c-2.2,0-3.9-1.8-3.9-3.9c0-2.2,1.8-3.9,3.9-3.9h53c2.2,0,3.9,1.8,3.9,3.9C81.2,35.3,79.4,37.1,77.2,37.1z"/>
</svg>
