<?xml version="1.0" encoding="utf-8"?>
<!-- Generator: Adobe Illustrator 22.0.1, SVG Export Plug-In . SVG Version: 6.00 Build 0)  -->
<svg version="1.1" id="Layer_1" xmlns="http://www.w3.org/2000/svg" xmlns:xlink="http://www.w3.org/1999/xlink" x="0px" y="0px"
	 width="100px" height="100px" viewBox="0 0 100 100" style="enable-background:new 0 0 100 100;" xml:space="preserve">
<g id="B4CuRD.tif">
	<g>
		<path d="M99,51c-0.2,1.9-0.3,3.8-0.5,5.7c0,0.3-0.1,0.5-0.5,0.6c-1.7,0.4-3.4,0.9-5.2,1.3c-1.5,0.3-3.1,0.6-4.7,0.9
			c-1.1,0.2-2.2,0.3-3.3,0.4c-0.1,0-0.4-0.2-0.4-0.3c-0.6-1.1-1.3-2.2-2.2-3c-1.8-1.8-4-2.8-6.5-3c-0.4,0-0.6-0.1-0.8-0.5
			c-0.9-2.4-1.8-4.9-2.8-7.3c-2.2-5-4.8-9.7-8-14.2c-1.5-2.1-3.1-4-4.6-6c-0.2-0.3-0.2-0.5-0.1-0.8c0.7-1.5,1-3.1,0.9-4.8
			c0-0.3,0.1-0.5,0.4-0.6c2.7-1,5.4-2,8.1-2.8c2.9-0.9,5.9-1.6,9-2c1.6-0.2,3.1-0.4,4.7-0.6c0.2,0,0.4,0.1,0.6,0.2
			c3.5,3.2,6.6,6.9,9,11.1c1.7,2.9,3.2,5.9,4.2,9.1c0.6,2,1.2,4,1.7,6.1c0.4,2,0.6,4.1,0.9,6.2C99,48,99,49.5,99,51z"/>
		<path d="M62.9,66.6c-0.7,0.4-1.4,0.8-2.1,1.2c-4.1,2.2-8,4.8-11.7,7.7c-2.6,2-5.1,4.2-7.4,6.6c-2.5,2.5-4.9,5.2-7.1,8.1
			c-1.3,1.7-2.5,3.4-3.7,5.1c-0.2,0.3-0.4,0.4-0.8,0.2C24,92.8,18.6,89,14,84.1c-0.1-0.1-0.2-0.4-0.2-0.6c0.2-1.8,0.4-3.7,0.7-5.5
			c0.3-1.8,0.7-3.6,1-5.5c0.2-1,0.5-2.1,0.8-3.1c0.8-2.8,1.7-5.5,2.8-8.2c0.9-2.1,2-4.2,2.9-6.4c0.1-0.3,0.3-0.4,0.6-0.3
			c2.3,0.4,4.5,0,6.6-1.1c0.4-0.2,0.7-0.2,1.1,0c2.4,1.5,4.7,3,7.2,4.3c3.1,1.7,6.3,3.2,9.6,4.4c2.3,0.8,4.6,1.6,6.9,2.3
			c2.7,0.7,5.4,1.2,8.1,1.8c0.2,0,0.4,0.1,0.7,0.2C62.9,66.5,62.9,66.5,62.9,66.6z"/>
		<path d="M65.5,59.4c-1-0.2-1.9-0.3-2.8-0.5c-3.3-0.6-6.6-1.4-9.7-2.5c-2.4-0.8-4.8-1.8-7.2-2.8c-3.8-1.6-7.4-3.7-10.9-6
			c-0.3-0.2-0.4-0.4-0.3-0.7c0.3-1.1,0.4-2.2,0.3-3.3c-0.1-1.6-0.5-3.1-1.3-4.6c-0.2-0.3-0.1-0.5,0.1-0.7c3-3.3,6.3-6.3,9.8-9
			c0.3-0.2,0.5-0.2,0.8,0c1.1,0.8,2.4,1.3,3.8,1.5c1.9,0.4,3.8,0.2,5.6-0.5c0.3-0.1,0.5-0.1,0.7,0.2c3.1,3.8,5.9,7.8,8.3,12.1
			c1.8,3.2,3.3,6.5,4.6,10c0.4,1,0.7,2,1,2.9c0.1,0.3,0.1,0.5-0.2,0.7c-0.9,0.8-1.7,1.8-2.2,2.9C65.7,59.2,65.5,59.3,65.5,59.4z"/>
		<path d="M72.1,79.5c-0.1,2.2-0.2,5.1-0.5,8c-0.2,2-0.6,4-0.9,6c-0.1,0.3-0.1,0.7-0.2,1c0,0.3-0.2,0.4-0.4,0.6
			c-2.3,1-4.7,1.9-7.2,2.6c-3.1,0.8-6.2,1.5-9.4,1.6c-2.1,0.1-4.2,0.2-6.3,0.1c-1.9-0.1-3.9-0.4-5.8-0.6c-1.1-0.1-2.1-0.4-3.2-0.6
			c-0.4-0.1-0.4-0.2-0.2-0.5c1.7-2.5,3.6-4.8,5.6-7.1c2-2.2,4.1-4.3,6.3-6.3c3.2-2.9,6.6-5.4,10.3-7.7c2.5-1.6,5.1-3,7.8-4.3
			c0.3-0.1,0.5-0.2,0.8,0.1c0.8,0.6,1.7,1.1,2.6,1.4c0.3,0.1,0.4,0.3,0.5,0.7C71.9,75.9,72,77.4,72.1,79.5z"/>
		<path d="M27.3,34.1c-0.8-0.1-1.6-0.3-2.4-0.3c-1.6-0.1-3.1,0.2-4.6,0.8c-0.3,0.1-0.5,0.2-0.7-0.1c-2.9-3.3-5.6-6.8-7.9-10.6
			c-0.5-0.8-1-1.7-1.5-2.5c-0.2-0.3-0.2-0.4,0-0.7c3.1-4.1,6.8-7.7,11-10.7c0.7-0.5,1.5-1,2.3-1.5c0.2-0.2,0.4-0.2,0.7-0.1
			c5.2,2.2,10.1,4.8,14.7,8c0.2,0.1,0.4,0.3,0.6,0.4c0.4,0.2,0.4,0.5,0.3,0.8c-0.1,0.6-0.2,1.3-0.3,1.9c-0.1,1-0.1,2,0.2,2.9
			c0.1,0.3-0.1,0.4-0.3,0.6c-1.9,1.5-3.8,3-5.6,4.7c-2.1,1.9-4,4-6,6c-0.1,0.1-0.3,0.2-0.5,0.4C27.3,34.2,27.3,34.2,27.3,34.1z"/>
		<path d="M7.3,75.2c-4.7-8-7-16.7-6.8-26c0.1-7.3,1.9-14.3,5.2-21c0.2,0.2,0.3,0.3,0.4,0.5c2,3.2,4.2,6.2,6.7,9
			c0.6,0.7,1.2,1.4,1.8,2c0.2,0.2,0.2,0.5,0.1,0.7c-0.8,2-0.9,4.1-0.4,6.2c0.3,1.2,0.8,2.4,1.5,3.4c0.2,0.3,0.2,0.5,0.1,0.9
			c-1.5,2.8-2.8,5.6-3.9,8.6c-0.9,2.3-1.7,4.7-2.4,7.1c-0.5,1.8-1,3.6-1.4,5.4c-0.2,0.8-0.3,1.7-0.5,2.6c0,0.2-0.1,0.4-0.2,0.6
			C7.4,75.2,7.3,75.2,7.3,75.2z"/>
		<path d="M74,7.6c-0.4,0.1-0.8,0.2-1.2,0.3c-1.4,0.3-2.8,0.6-4.2,1c-2,0.6-4,1.2-6,1.8c-1.8,0.6-3.5,1.3-5.2,2
			c-0.3,0.1-0.5,0.1-0.8-0.1c-0.9-0.8-2-1.4-3.1-1.9c-2.1-0.8-4.3-0.9-6.5-0.3c-0.7,0.2-1.4,0.6-2.1,0.9c-0.3,0.1-0.5,0.1-0.8,0
			c-2.8-2-5.7-3.9-8.8-5.5c-0.8-0.5-1.7-0.9-2.5-1.3c-0.1-0.1-0.2-0.1-0.4-0.3c7-2.6,14.3-3.6,21.7-2.9C61.3,1.9,67.9,4,74,7.5
			C74,7.5,74,7.6,74,7.6z"/>
		<path d="M96.6,65.3c-3.4,10.2-9.3,18.3-17.7,24.7c0,0-0.1,0-0.1,0c0-0.3,0-0.6,0-0.9c0.2-2.1,0.3-4.1,0.5-6.2
			c0.1-2.9,0.1-5.8-0.1-8.7c0-0.4,0.1-0.6,0.4-0.7c2.4-1.2,4.2-3.1,5.2-5.6c0.1-0.3,0.3-0.5,0.7-0.6c1.8-0.2,3.6-0.4,5.4-0.7
			c1.5-0.2,2.9-0.6,4.4-0.9C95.7,65.5,96.1,65.4,96.6,65.3z"/>
	</g>
</g>
</svg>
