<?xml version="1.0" encoding="utf-8"?>
<!-- Generator: Adobe Illustrator 22.0.1, SVG Export Plug-In . SVG Version: 6.00 Build 0)  -->
<svg version="1.1" id="Layer_1" xmlns="http://www.w3.org/2000/svg" xmlns:xlink="http://www.w3.org/1999/xlink" x="0px" y="0px"
	 width="100px" height="100px" viewBox="0 0 100 100" style="enable-background:new 0 0 100 100;" xml:space="preserve">
<g id="vESBDo.tif">
	<g>
		<path d="M44,85.7c-0.8-0.6-1.8-1.1-2.3-1.9c-0.6-1-0.7-2.2-1-3.3c-1.6,1.8-3.9,2.5-6.3,1c-2.1-1.3-2.7-3.3-1.8-5.9
			c-2.2,1.3-4.3,1.6-6.3,0.2c-2-1.4-2.4-3.4-1.9-5.9c-0.5,0.2-0.8,0.4-1.1,0.5c-2.2,1-4.7,0.4-6.1-1.3c-1.5-1.8-1.5-4.2-0.1-6.2
			c1-1.4,2.1-2.9,3.1-4.3c0.1-0.1,0.1-0.2,0.2-0.5c-1.8-2.2-3.6-4.5-5.5-6.9c0.6-1.3,1.2-2.5,1.9-4c2.3,2.8,4.5,5.5,6.6,8.1
			c4.3-0.9,7.6,2.1,6.7,6.7c0.5,0.2,1,0.7,1.5,0.8c3.8,0.4,4.9,1.4,5.6,5.1c0.6,0.8,1.5,1.2,2.6,1.1c2.2-0.1,3.9,1.1,4.4,3.1
			c0.5,1.9,1.8,2.7,3.3,3.3c1.1,0.5,2,1.1,2.7,2.1c0.9,1.2,2.1,2.2,3.8,2.1c1.4-0.1,2.2-0.9,2.4-2.5c-0.6-0.4-1.2-0.9-1.9-1.4
			c-2-1.4-3.9-2.8-5.9-4.2c0,0-0.1,0-0.1-0.1c-1.3-1-1.7-2.1-1-3c0.6-0.9,1.8-0.9,3.1,0.1c3.9,2.8,7.7,5.6,11.6,8.3
			c1.9,1.4,4.2,0.7,4.7-1.5c0.3-1.2-0.1-2.2-1.3-3.1c-3.7-2.7-7.5-5.4-11.2-8c-0.7-0.5-1.4-1-2.1-1.5c-0.9-0.8-1.1-1.7-0.5-2.5
			c0.5-0.8,1.6-1,2.6-0.3c1.6,1,3.1,2.2,4.7,3.3c3.5,2.5,7,5,10.5,7.5c0.3,0.2,0.5,0.4,0.8,0.6c1.5,0.9,3.2,0.5,4.1-0.8
			c0.8-1.3,0.5-3-0.9-3.9c-2.7-1.9-5.4-3.9-8.1-5.8c-3-2.1-6-4.3-9-6.4c-0.3-0.2-0.8-0.5-0.9-0.8c-0.2-0.6-0.3-1.4,0-1.9
			c0.3-0.7,1.1-1,1.9-0.6c0.7,0.3,1.3,0.7,1.9,1.1c5.5,3.9,11,7.9,16.6,11.8c0.6,0.4,1.3,0.8,2,0.9c1.6,0.3,3.1-0.6,3.8-2
			c0.7-1.4,0.3-3.1-0.9-4.2c-3.9-3.4-7.8-6.8-11.7-10.2c-5-4.4-9.9-8.8-14.9-13.2c-1.6-1.4-3.6-1.4-5.5-0.8
			c-1.8,0.5-3.1,1.7-3.4,3.6c-0.8,4.3-3.4,7.1-7.3,8.7c-2,0.8-4,0.6-5.9-0.5c-1.5-0.9-2-2.1-1.2-3.7c1-2.2,1.4-4.6,1.6-7
			c0.2-2.4,0.7-4.6,2.1-6.5c0.1-0.1,0.1-0.2,0.2-0.3c0-0.1,0-0.2,0-0.4c-3,0-6,0-9.3,0c0.8-1.7,1.5-3.2,2.1-4.6
			c0.6,0,1.1-0.1,1.6-0.1c3.7,0,7.4,0,11.1,0c1.4,0,2.7-0.3,4.1-0.9c3.3-1.5,6.7-2.6,10.4-2.1c1.8,0.2,3.6,0.6,5.4,1
			c4,1,7.9,2.4,12.3,2.3c4.4,9.2,8.9,18.5,13.3,27.7c-0.7,1.6-1.4,3.1-2.2,4.6c1.9,2.4,2.7,5,1.5,7.9c-1.2,2.8-3.5,4.2-6.6,4.4
			c-0.4,4.8-2.9,7.1-7.7,6.9c-0.6,2.5-1.8,4.5-4.2,5.4c-2.5,1-4.7,0.4-6.8-1.1c-2.9,4.3-6.3,4.5-9.6,2.8c-1.4,1.1-2.6,2.2-3.9,3.2
			C45.5,85.7,44.7,85.7,44,85.7z"/>
		<path d="M99.6,47c-0.8,0.7-1.6,1.4-2.5,2c-1.3,0.8-2.7,1.4-4.1,2.1c-1.8,0.9-3.3,0.5-4.1-1.3c-4.5-9.4-9-18.8-13.5-28.2
			c-1.2-2.5-0.8-3.4,1.7-4.6c1.8-0.9,3.6-1.9,5.4-2.8c0.3,0,0.7,0,1,0c0.7,0.6,1.6,1.2,1.9,2c2.9,5.9,5.7,11.8,8.6,17.7
			c1.9,3.9,3.8,7.7,5.6,11.6C99.6,46,99.6,46.5,99.6,47z"/>
		<path d="M17.4,14.2c1.9,1,3.8,2,5.7,3c2,1,2.4,2.1,1.5,4.1C21.1,28.7,17.5,36,14,43.4c-1,2.1-2,4.3-3.1,6.4
			C10.1,51.5,8.8,52,7,51.1c-1.8-0.8-3.6-1.7-5.3-2.7c-0.6-0.3-1-1-1.5-1.5c0-0.5,0-1,0-1.5c0.2-0.3,0.3-0.6,0.5-0.9
			C5.2,35.4,9.6,26.2,14,16.9c0.5-1.2,1.2-2.2,2.4-2.7C16.7,14.2,17.1,14.2,17.4,14.2z"/>
	</g>
</g>
</svg>
